<svg xmlns="http://www.w3.org/2000/svg" viewBox="0 0 800 200" role="img" aria-labelledby="title desc">
  <title id="title">ARI Award</title>
  <desc id="desc">ARI Award official horizontal logo by KanseiLink.</desc>
  <g transform="translate(18 18) scale(.64)">
    <path fill="#FACC15" d="M128 16 225 72 180 98Z"/>
    <path fill="#F59E0B" d="M128 16 180 98 128 68Z"/>
    <path fill="#F43F5E" d="M225 72 225 184 180 158Z"/>
    <path fill="#EC4899" d="M225 72 180 158 180 98Z"/>
    <path fill="#C026D3" d="M225 184 128 240 128 188Z"/>
    <path fill="#9333EA" d="M225 184 128 188 180 158Z"/>
    <path fill="#7C3AED" d="M128 240 31 184 76 158Z"/>
    <path fill="#4F46E5" d="M128 240 76 158 128 188Z"/>
    <path fill="#2563EB" d="M31 184 31 72 76 98Z"/>
    <path fill="#1D4ED8" d="M31 184 76 98 76 158Z"/>
    <path fill="#38BDF8" d="M31 72 128 16 128 68Z"/>
    <path fill="#0EA5E9" d="M31 72 128 68 76 98Z"/>
  </g>
  <text x="205" y="112" fill="#0F172A" font-family="Inter, Arial, sans-serif" font-size="72" font-weight="750" letter-spacing="-2.2">ARI Award</text>
  <text x="210" y="153" fill="#475569" font-family="Inter, Arial, sans-serif" font-size="19" font-weight="650" letter-spacing="4.8">AGENT READINESS INDEX</text>
</svg>
