<svg width="200" height="200" viewBox="0 0 200 200" fill="none" xmlns="http://www.w3.org/2000/svg">
  <defs>
    <linearGradient id="sg1" x1="30" y1="180" x2="170" y2="20" gradientUnits="userSpaceOnUse">
      <stop offset="0%" stop-color="#7B2FBE"/>
      <stop offset="50%" stop-color="#E91E63"/>
      <stop offset="100%" stop-color="#FF6D00"/>
    </linearGradient>
  </defs>
  <g stroke="url(#sg1)" stroke-width="7" fill="none" stroke-linejoin="round">
    <!-- Top hexagon (outer) -->
    <polygon points="100,12 130,29 130,63 100,80 70,63 70,29"/>
    <!-- Top hexagon (inner) -->
    <polygon points="100,24 122,36 122,58 100,70 78,58 78,36"/>
    <!-- Bottom-right hexagon (outer) -->
    <polygon points="140,80 170,97 170,131 140,148 110,131 110,97"/>
    <!-- Bottom-right hexagon (inner) -->
    <polygon points="140,92 162,104 162,126 140,138 118,126 118,104"/>
    <!-- Bottom-left hexagon (outer) -->
    <polygon points="60,80 90,97 90,131 60,148 30,131 30,97"/>
    <!-- Bottom-left hexagon (inner) -->
    <polygon points="60,92 82,104 82,126 60,138 38,126 38,104"/>
    <!-- Center hexagon (small) -->
    <polygon points="100,80 115,89 115,107 100,116 85,107 85,89"/>
  </g>
</svg>
